<svg xmlns="http://www.w3.org/2000/svg" xmlns:xlink="http://www.w3.org/1999/xlink" viewBox="0 0 259 39"><title>TpT Logo</title><defs><path id="a" d="M39.54 38.32H0V.058h39.54z"/><path id="c" d="M8.62 10.76V.165H.334V10.76z"/></defs><g fill-rule="evenodd" fill="none"><g transform="translate(0 .33)"><mask id="b" fill="#fff"><use xlink:href="#a"/></mask><path fill="#09A56C" mask="url(#b)" d="M35.06 15.697c-.59-.013-1.2.048-1.768.2-.385.1-.756.248-1.106.434-.936.5-1.786 1.3-2.088 2.32l-.052.176c-.016.098-.034.166-.04.234-.042.416-.477 3.103-1.522 5-.42.764-.89 1.514-1.45 2.22-.564.7-1.185 1.375-1.955 1.942-.38.276-.817.56-1.3.72-.482.17-1.025.218-1.526.146-.505-.063-.955-.243-1.387-.394-.338-.122-.642-.227-.937-.263 0 0-.04 0-.06-.002-.377-.015-.76.128-1.197.285-.432.152-.89.31-1.396.373-.502.072-1.044.023-1.525-.145-.485-.16-.91-.423-1.29-.7-.772-.565-1.392-1.24-1.958-1.94-.557-.707-1.04-1.452-1.45-2.22-.857-1.603-1.246-3.23-1.52-5-.015-.067-.025-.137-.04-.234l-.053-.178C8.948 16.91 6.91 15.9 5.168 15.732c-.11-.01-.502-.013-.673-.014-.046 0-.082-.037-.082-.08v-.464c0-.057.044-.106.102-.114 1.683-.235 3.253.158 4.52 1.058.035.024.07.05.103.075l.374.302c.08.074.155.147.23.22.032-.138.068-.278.107-.418.06-.212.104-.32.178-.537.145-.367.325-.722.55-1.05.447-.654 1.087-1.176 1.77-1.467.685-.298 1.38-.388 2.003-.388 1.368 0 2.853.898 3.33 1.257.062.047.095.116.095.19v.562c0 .084-.088.14-.166.104-.842-.39-2.03-.984-3.217-.89-.49.04-.99.155-1.438.383-1.622.822-1.957 2.904-1.927 4.488.004.243.012.325.012.325.09 1.39.473 2.867 1.113 4.305.327.733.722 1.456 1.188 2.145.468.683 1.017 1.34 1.652 1.87.642.537 1.39.875 2.197.783.403-.045.816-.176 1.244-.32.343-.117.75-.282 1.185-.316 0 0 .017-.003.03-.003.545-.024 1.047.158 1.464.3.427.144.83.296 1.234.34.806.093 1.564-.267 2.206-.804.635-.53 1.184-1.186 1.65-1.87.468-.688.863-1.41 1.19-2.144.64-1.44.98-3.206 1.074-4.31.13-1.504-.033-3.323-1.278-4.378-1.007-.853-2.297-.952-3.548-.65-.508.124-1.332.404-2.11.762-.065.03-.138-.015-.138-.083v-.587c0-.086.044-.166.12-.212.69-.42 2.06-1.116 3.467-1.23.757-.06 1.533.056 2.216.354.684.29 1.325.813 1.772 1.468.225.327.405.68.55 1.05.073.216.12.324.177.536.04.14.076.28.108.418l.228-.22c.32-.258.64-.5 1.006-.698.616-.337 1.292-.572 1.99-.694.347-.062.7-.095 1.055-.098.176-.002.353.007.53.017.143.008.36.037.46.052.033.005.056.03.056.1v.478c0 .036-.03.065-.067.064M8.746 12.45c.422-.028.84.435.932 1.035.09.6-.176 1.11-.6 1.138-.42.03-.84-.435-.93-1.035s.174-1.11.597-1.138m9.64-.406c.002-.084.066-.15.143-.15h2.514c.104 0 .174.118.13.22-.11.254-.44 1.07-.536 2.05-.087.905-.02 1.755.02 1.98.015.097-.053.184-.143.183l-1.345-.01c-.058 0-.11-.038-.13-.097-.113-.307-.454-1.278-.563-2.018-.084-.574-.105-1.523-.09-2.158m11.473 1.422c.093-.6.51-1.064.932-1.035.423.03.69.538.598 1.14-.092.6-.51 1.062-.932 1.034-.422-.03-.69-.538-.598-1.138M19.77.056C8.85.057 0 8.624 0 19.19 0 29.754 8.85 38.32 19.77 38.32c10.918 0 19.77-8.567 19.77-19.133S30.688.056 19.77.056"/></g><path fill="#09A56C" d="M58.233 15.93v-1.363c0-.16-.135-.29-.3-.29h-10.62c-.165 0-.3.13-.3.29v1.363c0 .16.135.29.3.29h4.237v11.425c0 .16.135.29.3.29h1.545c.166 0 .3-.13.3-.29V16.22h4.238c.165 0 .3-.13.3-.29M59.835 21.955c.303-1.588 1.457-2.67 2.896-2.67 1.77 0 2.617 1.326 2.845 2.67h-5.74zm2.935-4.466c-2.9 0-5.09 2.293-5.09 5.335 0 3.04 2.272 5.334 5.283 5.334 1.775 0 3.112-.59 4.336-1.91.05-.057.08-.132.075-.21-.005-.076-.04-.148-.1-.2l-.926-.803c-.122-.104-.307-.098-.42.016-.868.88-1.772 1.274-2.93 1.274-1.63 0-2.87-1.045-3.167-2.633h7.57c.156 0 .286-.116.3-.266.02-.235.02-.392.02-.53 0-3.184-2.037-5.41-4.953-5.41zM73.804 26.402c-1.064 0-2.21-.512-2.21-1.634v-.038c0-1.02 1.002-1.653 2.615-1.653 1.118 0 2.002.18 2.615.34v.678c0 1.315-1.3 2.307-3.02 2.307m.5-8.856c-1.61 0-2.755.407-3.753.848-.143.062-.21.22-.158.364l.444 1.177c.03.076.09.137.167.168.078.032.165.03.24-.003 1.05-.467 1.92-.666 2.906-.666 1.195 0 2.614.392 2.654 2.245-.718-.178-1.57-.323-2.75-.323-2.816 0-4.566 1.32-4.566 3.448v.038c0 2.165 2.026 3.298 4.026 3.298 1.533 0 2.59-.565 3.29-1.19v.695c0 .16.136.29.3.29h1.468c.166 0 .3-.13.3-.29V21.74c0-1.312-.37-2.308-1.13-3.044-.777-.753-1.965-1.15-3.436-1.15M89.54 24.93c-.06-.053-.138-.077-.216-.08-.08.004-.155.037-.21.094-.872.905-1.798 1.346-2.83 1.346-1.89 0-3.37-1.523-3.37-3.465v-.038c0-1.932 1.438-3.446 3.273-3.446 1.288 0 2.114.658 2.814 1.368.057.058.136.09.218.09.083-.01.16-.033.22-.09l.983-1.01c.11-.112.11-.287 0-.398-.818-.843-2.038-1.81-4.214-1.81-2.986 0-5.416 2.393-5.416 5.335v.037c0 2.92 2.43 5.298 5.416 5.298 2.196 0 3.45-1.05 4.297-1.965.11-.118.1-.298-.018-.406l-.946-.86zM97.7 17.49c-1.274 0-2.32.434-3.118 1.295v-4.78c0-.16-.135-.29-.3-.29h-1.486c-.166 0-.3.13-.3.29v13.64c0 .16.134.29.3.29h1.486c.165 0 .3-.13.3-.29v-5.53c0-1.612 1.107-2.737 2.692-2.737 1.564 0 2.46.957 2.46 2.625v5.642c0 .16.136.29.306.29h1.48c.17 0 .3-.13.3-.29v-5.997c0-2.527-1.62-4.16-4.12-4.16M105.8 21.955c.3-1.588 1.46-2.67 2.9-2.67 1.77 0 2.61 1.326 2.84 2.67h-5.74zm2.93-4.466c-2.9 0-5.08 2.293-5.08 5.335 0 3.04 2.27 5.334 5.28 5.334 1.77 0 3.11-.59 4.33-1.91.06-.057.08-.132.08-.21s-.04-.148-.1-.2l-.93-.803c-.12-.104-.3-.098-.41.016-.87.88-1.78 1.274-2.93 1.274-1.64 0-2.87-1.045-3.17-2.633h7.57c.15 0 .28-.116.3-.266.02-.235.02-.392.02-.53 0-3.184-2.04-5.41-4.96-5.41zM121.33 17.62c-1.51-.05-3.08.29-3.79 1.38v-1.015c0-.16-.13-.29-.3-.29h-1.48c-.17 0-.3.13-.3.29v9.66c0 .16.13.29.3.29h1.48c.17 0 .3-.13.3-.29v-3.85c0-2.512 1.44-4.233 3.66-4.233h.12c.16 0 .3-.13.3-.29V17.91c0-.156-.13-.284-.29-.29M127.56 21.855l-.03-.01c-1.2-.35-2.32-.683-2.32-1.374v-.037c0-.664.65-1.11 1.63-1.11.87 0 1.89.323 2.79.887.07.042.15.057.23.04s.15-.067.19-.134l.68-1.083c.08-.134.04-.307-.1-.393-1.09-.697-2.49-1.113-3.75-1.113-2.18 0-3.7 1.256-3.7 3.055v.038c0 2.04 2.03 2.6 3.52 3.008 1.29.348 2.27.673 2.27 1.42v.037c0 .743-.71 1.242-1.76 1.242-1.09 0-2.22-.407-3.28-1.175-.06-.047-.15-.067-.23-.055s-.15.055-.19.12l-.76 1.027c-.09.125-.06.297.06.394 1.17.915 2.82 1.484 4.32 1.484 2.27 0 3.85-1.31 3.85-3.186v-.038c0-2.05-2.06-2.648-3.42-3.043M186.26 15.93v-1.363c0-.16-.14-.29-.3-.29h-10.62c-.17 0-.3.13-.3.29v1.363c0 .16.13.29.3.29h4.24v11.425c0 .16.13.29.3.29h1.54c.17 0 .3-.13.3-.29V16.22h4.24c.16 0 .3-.13.3-.29M187.86 21.955c.3-1.588 1.46-2.67 2.9-2.67 1.77 0 2.61 1.326 2.84 2.67h-5.74zm2.94-4.466c-2.91 0-5.09 2.293-5.09 5.335 0 3.04 2.27 5.334 5.28 5.334 1.77 0 3.11-.59 4.33-1.91.06-.057.08-.132.08-.21s-.04-.148-.1-.2l-.93-.803c-.12-.104-.3-.098-.41.016-.87.88-1.78 1.274-2.93 1.274-1.63 0-2.87-1.045-3.17-2.633h7.57c.16 0 .29-.116.3-.266.02-.235.02-.392.02-.53 0-3.184-2.04-5.41-4.95-5.41zM201.83 26.402c-1.06 0-2.21-.512-2.21-1.634v-.038c0-1.02 1-1.653 2.62-1.653 1.11 0 2 .18 2.61.34v.678c0 1.315-1.3 2.307-3.02 2.307m.5-8.856c-1.61 0-2.75.407-3.75.848-.14.062-.21.22-.16.364l.44 1.177c.03.076.09.137.17.168.08.032.17.03.24-.003 1.05-.467 1.92-.666 2.91-.666 1.19 0 2.61.392 2.65 2.245-.72-.178-1.57-.323-2.75-.323-2.82 0-4.57 1.32-4.57 3.448v.038c0 2.165 2.03 3.298 4.03 3.298 1.53 0 2.59-.565 3.29-1.19v.695c0 .16.14.29.3.29h1.47c.16 0 .3-.13.3-.29V21.74c0-1.312-.37-2.308-1.13-3.044-.78-.753-1.97-1.15-3.44-1.15M217.57 24.93c-.06-.053-.14-.077-.22-.08-.08.004-.16.037-.21.094-.87.905-1.8 1.346-2.83 1.346-1.89 0-3.37-1.523-3.37-3.465v-.038c0-1.932 1.44-3.446 3.27-3.446 1.29 0 2.12.658 2.82 1.368.05.058.13.09.21.09.09-.01.17-.033.22-.09l.99-1.01c.11-.112.11-.287 0-.398-.82-.843-2.04-1.81-4.22-1.81-2.98 0-5.41 2.393-5.41 5.335v.037c0 2.92 2.43 5.298 5.41 5.298 2.2 0 3.45-1.05 4.3-1.965.11-.118.1-.298-.02-.406l-.94-.86zM225.73 17.49c-1.28 0-2.32.434-3.12 1.295v-4.78c0-.16-.14-.29-.3-.29h-1.49c-.16 0-.3.13-.3.29v13.64c0 .16.14.29.3.29h1.49c.16 0 .3-.13.3-.29v-5.53c0-1.612 1.11-2.737 2.69-2.737 1.56 0 2.46.957 2.46 2.625v5.642c0 .16.14.29.3.29h1.49c.16 0 .3-.13.3-.29v-5.997c0-2.527-1.62-4.16-4.12-4.16M233.83 21.955c.3-1.588 1.45-2.67 2.89-2.67 1.77 0 2.62 1.326 2.85 2.67h-5.74zm2.93-4.466c-2.9 0-5.09 2.293-5.09 5.335 0 3.04 2.27 5.334 5.28 5.334 1.78 0 3.12-.59 4.34-1.91.05-.057.08-.132.08-.21-.01-.076-.04-.148-.1-.2l-.93-.803c-.12-.104-.31-.098-.42.016-.87.88-1.77 1.274-2.93 1.274-1.63 0-2.87-1.045-3.17-2.633h7.57c.16 0 .29-.116.3-.266.02-.235.02-.392.02-.53 0-3.184-2.03-5.41-4.95-5.41zM249.36 17.62c-1.52-.05-3.09.29-3.79 1.38v-1.015c0-.16-.13-.29-.3-.29h-1.49c-.16 0-.3.13-.3.29v9.66c0 .16.14.29.3.29h1.49c.17 0 .3-.13.3-.29v-3.85c0-2.512 1.44-4.233 3.66-4.233h.11c.17 0 .3-.13.3-.29V17.91c0-.156-.12-.284-.28-.29"/><g transform="translate(250.39 17.362)"><mask id="d" fill="#fff"><use xlink:href="#c"/></mask><path fill="#09A56C" mask="url(#d)" d="M5.202 4.493l-.038-.01C3.972 4.13 2.847 3.8 2.847 3.107V3.07c0-.663.655-1.11 1.63-1.11.87 0 1.89.324 2.792.888.066.042.15.056.23.04.078-.02.146-.067.188-.135l.676-1.083c.083-.133.043-.306-.09-.392C7.18.58 5.777.165 4.515.165 2.338.165.818 1.42.818 3.22v.037c0 2.04 2.034 2.6 3.52 3.008 1.287.348 2.272.674 2.272 1.42v.038c0 .743-.71 1.242-1.766 1.242-1.084 0-2.217-.407-3.276-1.175-.064-.047-.147-.067-.226-.055-.08.012-.152.055-.2.12L.393 8.88c-.093.125-.068.297.055.393 1.167.916 2.823 1.485 4.32 1.485 2.268 0 3.852-1.31 3.852-3.187v-.037c0-2.05-2.058-2.648-3.418-3.043"/></g><path fill="#09A56C" d="M143.22 21.395h-3.04V16.22h3.12c2.11 0 3.33.93 3.33 2.55v.038c0 1.57-1.34 2.587-3.41 2.587m.19-7.12h-5.06c-.16 0-.3.13-.3.29v13.08c0 .16.14.29.3.29h1.53c.17 0 .3-.13.3-.29V23.32h2.98c3.36 0 5.61-1.836 5.61-4.568v-.038c0-2.696-2.1-4.438-5.36-4.438M154.02 26.402c-1.06 0-2.21-.512-2.21-1.634v-.038c0-1.02 1-1.653 2.62-1.653 1.12 0 2 .18 2.61.34v.678c0 1.315-1.3 2.307-3.02 2.307m.5-8.856c-1.61 0-2.75.407-3.75.848-.14.062-.21.22-.16.364l.45 1.177c.02.076.08.137.16.168.08.032.17.03.24-.003 1.05-.467 1.92-.666 2.91-.666 1.19 0 2.61.392 2.65 2.245-.72-.178-1.57-.323-2.75-.323-2.81 0-4.56 1.32-4.56 3.448v.038c0 2.165 2.02 3.298 4.02 3.298 1.53 0 2.59-.565 3.29-1.19v.695c0 .16.14.29.3.29h1.47c.17 0 .3-.13.3-.29V21.74c0-1.312-.37-2.308-1.13-3.044-.78-.753-1.97-1.15-3.44-1.15M170.89 17.695h-1.58c-.12 0-.24.074-.28.186l-2.94 7.393-3.34-7.404c-.05-.106-.15-.175-.27-.175h-1.65c-.1 0-.19.05-.25.133-.05.084-.06.188-.02.278l4.48 9.505c-.57 1.267-1.07 1.52-1.71 1.52-.57 0-.97-.09-1.43-.323-.07-.037-.16-.043-.24-.016-.08.03-.14.087-.17.16l-.51 1.14c-.06.143 0 .308.15.376.78.366 1.43.515 2.25.515 1.68 0 2.72-.84 3.6-2.908l4.19-9.977c.04-.09.03-.19-.03-.27-.05-.082-.15-.13-.25-.13"/></g></svg>
