<?xml version="1.0" standalone="no"?>
<svg id="SvgjsSvg1001" width="400" height="400" xmlns="http://www.w3.org/2000/svg" version="1.1" xmlns:xlink="http://www.w3.org/1999/xlink" xmlns:svgjs="http://svgjs.com/svgjs"><defs id="SvgjsDefs1002"></defs><rect id="SvgjsRect1008" width="400" height="400" x="0" y="0" stroke="hsl(200, 50%, 50%)" stroke-opacity="0.6" stroke-width="1" fill="hsl(200, 50%, 80%)" fill-opacity="0.4"></rect><rect id="SvgjsRect1009" width="200" height="200" x="100" y="100" stroke="hsl(200, 50%, 50%)" stroke-opacity="0.6" stroke-width="1" fill="hsl(200, 50%, 80%)" fill-opacity="0.4"></rect><ellipse id="SvgjsEllipse1010" rx="5" ry="5" cx="200" cy="200" stroke="blue" stroke-opacity="0.6" stroke-width="4" fill="none" fill-opacity="0.4"></ellipse><path id="SvgjsPath1011" d="M 150 100 L 150 50 50 50 50 150 100 150 155.90169943749476 200 100 250" stroke="blue" stroke-opacity="0.6" stroke-width="4" fill="none" fill-opacity="0.4"></path><path id="SvgjsPath1012" d="M 250 300 L 250.00000000000003 350 350 350 350 249.99999999999997 300 250 244.09830056250524 200 300 150" stroke="blue" stroke-opacity="0.6" stroke-width="4" fill="none" fill-opacity="0.4"></path><path id="SvgjsPath1013" d="M 300 149.99999999999997 L 350 149.99999999999994 350 49.99999999999997 249.99999999999994 50 249.99999999999997 99.99999999999999 200 155.90169943749476 149.99999999999997 100.00000000000001" stroke="blue" stroke-opacity="0.6" stroke-width="4" fill="none" fill-opacity="0.4"></path><rect id="SvgjsRect1014" width="100" height="100" x="250" y="250" stroke="hsl(200, 50%, 50%)" stroke-opacity="0.6" stroke-width="1" fill="hsl(200, 50%, 80%)" fill-opacity="0.4"></rect><ellipse id="SvgjsEllipse1015" rx="5" ry="5" cx="300" cy="300" stroke="blue" stroke-opacity="0.6" stroke-width="4" fill="none" fill-opacity="0.4"></ellipse><path id="SvgjsPath1016" d="M 275 250 L 275 225 225 225 225 275 250 275 277.95084971874735 300 250 325" stroke="blue" stroke-opacity="0.6" stroke-width="4" fill="none" fill-opacity="0.4"></path><path id="SvgjsPath1017" d="M 325 350 L 325 375 375 375 375 325 350 325 322.04915028125265 300 350 275" stroke="blue" stroke-opacity="0.6" stroke-width="4" fill="none" fill-opacity="0.4"></path><path id="SvgjsPath1018" d="M 350 275 L 375 275 375 225 325 225 325 250 300 277.95084971874735 275 250" stroke="blue" stroke-opacity="0.6" stroke-width="4" fill="none" fill-opacity="0.4"></path><rect id="SvgjsRect1019" width="50" height="50" x="325" y="325" stroke="hsl(200, 50%, 50%)" stroke-opacity="0.6" stroke-width="1" fill="hsl(200, 50%, 80%)" fill-opacity="0.4"></rect><rect id="SvgjsRect1020" width="50" height="50" x="225" y="325" stroke="hsl(200, 50%, 50%)" stroke-opacity="0.6" stroke-width="1" fill="hsl(200, 50%, 80%)" fill-opacity="0.4"></rect><rect id="SvgjsRect1021" width="50" height="50" x="325" y="225" stroke="hsl(200, 50%, 50%)" stroke-opacity="0.6" stroke-width="1" fill="hsl(200, 50%, 80%)" fill-opacity="0.4"></rect><rect id="SvgjsRect1022" width="50" height="50" x="225" y="225" stroke="hsl(200, 50%, 50%)" stroke-opacity="0.6" stroke-width="1" fill="hsl(200, 50%, 80%)" fill-opacity="0.4"></rect><rect id="SvgjsRect1023" width="100" height="100" x="50" y="250" stroke="hsl(200, 50%, 50%)" stroke-opacity="0.6" stroke-width="1" fill="hsl(200, 50%, 80%)" fill-opacity="0.4"></rect><ellipse id="SvgjsEllipse1024" rx="5" ry="5" cx="100" cy="300" stroke="blue" stroke-opacity="0.6" stroke-width="4" fill="none" fill-opacity="0.4"></ellipse><path id="SvgjsPath1025" d="M 75 250 L 75 225 25 225 25 275 50 275 77.95084971874735 300 50 325" stroke="blue" stroke-opacity="0.6" stroke-width="4" fill="none" fill-opacity="0.4"></path><path id="SvgjsPath1026" d="M 125 350 L 125.00000000000001 375 175 375 175 325 150 325 122.04915028125265 300 150 275" stroke="blue" stroke-opacity="0.6" stroke-width="4" fill="none" fill-opacity="0.4"></path><path id="SvgjsPath1027" d="M 150 275 L 175 275 175 225 124.99999999999999 225 124.99999999999999 250 100 277.95084971874735 74.99999999999999 250" stroke="blue" stroke-opacity="0.6" stroke-width="4" fill="none" fill-opacity="0.4"></path><rect id="SvgjsRect1028" width="50" height="50" x="125" y="325" stroke="hsl(200, 50%, 50%)" stroke-opacity="0.6" stroke-width="1" fill="hsl(200, 50%, 80%)" fill-opacity="0.4"></rect><rect id="SvgjsRect1029" width="50" height="50" x="25" y="325" stroke="hsl(200, 50%, 50%)" stroke-opacity="0.6" stroke-width="1" fill="hsl(200, 50%, 80%)" fill-opacity="0.4"></rect><rect id="SvgjsRect1030" width="50" height="50" x="125" y="225" stroke="hsl(200, 50%, 50%)" stroke-opacity="0.6" stroke-width="1" fill="hsl(200, 50%, 80%)" fill-opacity="0.4"></rect><rect id="SvgjsRect1031" width="50" height="50" x="25" y="225" stroke="hsl(200, 50%, 50%)" stroke-opacity="0.6" stroke-width="1" fill="hsl(200, 50%, 80%)" fill-opacity="0.4"></rect><rect id="SvgjsRect1032" width="100" height="100" x="250" y="50" stroke="hsl(200, 50%, 50%)" stroke-opacity="0.6" stroke-width="1" fill="hsl(200, 50%, 80%)" fill-opacity="0.4"></rect><ellipse id="SvgjsEllipse1033" rx="5" ry="5" cx="300" cy="100" stroke="blue" stroke-opacity="0.6" stroke-width="4" fill="none" fill-opacity="0.4"></ellipse><path id="SvgjsPath1034" d="M 275 50 L 275 25 225 25 225 75 250 75 277.95084971874735 100 250 125" stroke="blue" stroke-opacity="0.6" stroke-width="4" fill="none" fill-opacity="0.4"></path><path id="SvgjsPath1035" d="M 325 150 L 325 175 375 175 375 124.99999999999999 350 125 322.04915028125265 100 350 75" stroke="blue" stroke-opacity="0.6" stroke-width="4" fill="none" fill-opacity="0.4"></path><path id="SvgjsPath1036" d="M 350 74.99999999999999 L 375 74.99999999999999 375 24.999999999999986 325 25 325 49.99999999999999 300 77.95084971874735 275 50.00000000000001" stroke="blue" stroke-opacity="0.6" stroke-width="4" fill="none" fill-opacity="0.4"></path><rect id="SvgjsRect1037" width="50" height="50" x="325" y="125" stroke="hsl(200, 50%, 50%)" stroke-opacity="0.6" stroke-width="1" fill="hsl(200, 50%, 80%)" fill-opacity="0.4"></rect><rect id="SvgjsRect1038" width="50" height="50" x="225" y="125" stroke="hsl(200, 50%, 50%)" stroke-opacity="0.6" stroke-width="1" fill="hsl(200, 50%, 80%)" fill-opacity="0.4"></rect><rect id="SvgjsRect1039" width="50" height="50" x="325" y="25" stroke="hsl(200, 50%, 50%)" stroke-opacity="0.6" stroke-width="1" fill="hsl(200, 50%, 80%)" fill-opacity="0.4"></rect><rect id="SvgjsRect1040" width="50" height="50" x="225" y="25" stroke="hsl(200, 50%, 50%)" stroke-opacity="0.6" stroke-width="1" fill="hsl(200, 50%, 80%)" fill-opacity="0.4"></rect><rect id="SvgjsRect1041" width="100" height="100" x="50" y="50" stroke="hsl(200, 50%, 50%)" stroke-opacity="0.6" stroke-width="1" fill="hsl(200, 50%, 80%)" fill-opacity="0.4"></rect><ellipse id="SvgjsEllipse1042" rx="5" ry="5" cx="100" cy="100" stroke="blue" stroke-opacity="0.6" stroke-width="4" fill="none" fill-opacity="0.4"></ellipse><path id="SvgjsPath1043" d="M 75 50 L 75 25 25 25 25 75 50 75 77.95084971874738 100 50 125" stroke="blue" stroke-opacity="0.6" stroke-width="4" fill="none" fill-opacity="0.4"></path><path id="SvgjsPath1044" d="M 125 150 L 125.00000000000001 175 175 175 175 124.99999999999999 150 125 122.04915028125262 100 150 75" stroke="blue" stroke-opacity="0.6" stroke-width="4" fill="none" fill-opacity="0.4"></path><path id="SvgjsPath1045" d="M 150 74.99999999999999 L 175 74.99999999999997 175 24.999999999999986 124.99999999999997 25 124.99999999999999 49.99999999999999 100 77.95084971874738 74.99999999999999 50.00000000000001" stroke="blue" stroke-opacity="0.6" stroke-width="4" fill="none" fill-opacity="0.4"></path><rect id="SvgjsRect1046" width="50" height="50" x="125" y="125" stroke="hsl(200, 50%, 50%)" stroke-opacity="0.6" stroke-width="1" fill="hsl(200, 50%, 80%)" fill-opacity="0.4"></rect><rect id="SvgjsRect1047" width="50" height="50" x="25" y="125" stroke="hsl(200, 50%, 50%)" stroke-opacity="0.6" stroke-width="1" fill="hsl(200, 50%, 80%)" fill-opacity="0.4"></rect><rect id="SvgjsRect1048" width="50" height="50" x="125" y="25" stroke="hsl(200, 50%, 50%)" stroke-opacity="0.6" stroke-width="1" fill="hsl(200, 50%, 80%)" fill-opacity="0.4"></rect><rect id="SvgjsRect1049" width="50" height="50" x="25" y="25" stroke="hsl(200, 50%, 50%)" stroke-opacity="0.6" stroke-width="1" fill="hsl(200, 50%, 80%)" fill-opacity="0.4"></rect></svg>