<?xml version="1.0" encoding="utf-8"?>
<!-- Generator: Adobe Illustrator 21.1.0, SVG Export Plug-In . SVG Version: 6.00 Build 0)  -->
<svg version="1.1" id="Layer_1" xmlns="http://www.w3.org/2000/svg" xmlns:xlink="http://www.w3.org/1999/xlink" x="0px" y="0px"
	 viewBox="0 0 415 413" style="enable-background:new 0 0 415 413;" xml:space="preserve">
<style type="text/css">
	.st0{opacity:0.8;fill:#FFFFFF;enable-background:new    ;}
	.st1{fill:none;stroke:#0019FC;stroke-width:3;stroke-miterlimit:10;}
	.st2{fill:none;stroke:#F40884;stroke-width:5;stroke-miterlimit:10;}
	.st3{fill:none;stroke:#0FB5B1;stroke-width:5;stroke-miterlimit:10;}
	.st4{fill:none;stroke:#F2F20A;stroke-width:5;stroke-miterlimit:10;}
	.st5{fill:none;stroke:#1149EA;stroke-width:5;stroke-miterlimit:10;}
</style>
<image style="overflow:visible;enable-background:new    ;" width="830" height="826" xlink:href="../../art/stained-glass-window.png"  transform="matrix(0.5 0 0 0.5 0 0)">
</image>
<rect class="st0" width="415" height="413"/>
<path class="st1" d="M322.7,168.8"/>
<polyline class="st2" points="156,206.5 106.5,155.3 55.9,155.3 55.9,56.2 156,56.2 156,106.3 206.7,154.8 "/>
<polyline class="st3" points="258.1,206.5 307.7,155.3 358.3,155.3 358.3,56.2 258.1,56.2 258.1,106.3 207.5,154.8 "/>
<polyline class="st4" points="154.6,206.5 105,257.7 54.4,257.7 54.4,356.8 154.6,356.8 154.6,306.7 205.2,258.2 "/>
<polyline class="st5" points="256.7,206.5 306.3,257.7 356.9,257.7 356.9,356.8 256.7,356.8 256.7,306.7 206.1,258.2 "/>
</svg>
