<?xml version="1.0" encoding="utf-8"?>
<!-- Generator: Adobe Illustrator 21.1.0, SVG Export Plug-In . SVG Version: 6.00 Build 0)  -->
<svg version="1.1" id="Layer_1" xmlns="http://www.w3.org/2000/svg" xmlns:xlink="http://www.w3.org/1999/xlink" x="0px" y="0px"
	 viewBox="0 0 415 413" style="enable-background:new 0 0 415 413;" xml:space="preserve">
<style type="text/css">
	.st0{opacity:0.6;fill:#FFFFFF;enable-background:new    ;}
	.st1{fill:none;stroke:#F40884;stroke-width:5;stroke-miterlimit:10;}
	.st2{fill:none;stroke:#F40884;stroke-width:4;stroke-miterlimit:10;}
	.st3{fill:none;stroke:#F40884;stroke-width:3;stroke-miterlimit:10;}
</style>
<image style="overflow:visible;enable-background:new    ;" width="830" height="826" xlink:href="../../art/stained-glass-window.png"  transform="matrix(0.5 0 0 0.5 0 0)">
</image>
<rect class="st0" width="415" height="413"/>
<rect x="106.8" y="102.5" class="st1" width="203.6" height="203.6"/>
<rect x="257.1" y="53.9" class="st2" width="101.3" height="101.3"/>
<rect x="331.9" y="27.3" class="st2" width="53.1" height="53.1"/>
<rect x="230.6" y="28.7" class="st2" width="53.1" height="53.1"/>
<rect x="331.9" y="128.7" class="st2" width="53.1" height="53.1"/>
<rect x="230.6" y="131.1" class="st2" width="53.1" height="53.1"/>
<g>
	<rect x="371.1" y="14.5" class="st3" width="27.1" height="27.1"/>
	<rect x="391.1" y="7.4" class="st3" width="14.2" height="14.2"/>
	<rect x="364" y="7.7" class="st3" width="14.2" height="14.2"/>
	<rect x="391.1" y="34.4" class="st3" width="14.2" height="14.2"/>
	<rect x="364" y="35.1" class="st3" width="14.2" height="14.2"/>
</g>
<rect x="53.3" y="53.9" class="st2" width="101.3" height="101.3"/>
<rect x="53.3" y="255.4" class="st2" width="101.3" height="101.3"/>
<rect x="257.1" y="255.4" class="st2" width="101.3" height="101.3"/>
</svg>
