<?xml version="1.0" standalone="no"?>
<svg id="SvgjsSvg1001" width="400" height="400" xmlns="http://www.w3.org/2000/svg" version="1.1" xmlns:xlink="http://www.w3.org/1999/xlink" xmlns:svgjs="http://svgjs.com/svgjs"><defs id="SvgjsDefs1002"></defs><path id="SvgjsPath1008" d="M 150 100 L 150 50 50 50 50 150 100 150 155.90169943749476 200 100 250" stroke="blue" stroke-opacity="0.6" stroke-width="5" fill="none" fill-opacity="0.4"></path><path id="SvgjsPath1009" d="M 300 150 L 350 149.99999999999997 350 49.99999999999997 249.99999999999997 50 250 100 200 155.90169943749476 150 100" stroke="blue" stroke-opacity="0.6" stroke-width="5" fill="none" fill-opacity="0.4"></path><path id="SvgjsPath1010" d="M 250.00000000000003 300 L 250.00000000000003 350 350 350 350 249.99999999999997 300 249.99999999999997 244.09830056250524 200 300 149.99999999999997" stroke="blue" stroke-opacity="0.6" stroke-width="5" fill="none" fill-opacity="0.4"></path><path id="SvgjsPath1011" d="M 100.00000000000001 250.00000000000003 L 50 250.00000000000003 50.00000000000003 350 150.00000000000003 350 150.00000000000003 300 200 244.09830056250524 250.00000000000003 300" stroke="blue" stroke-opacity="0.6" stroke-width="5" fill="none" fill-opacity="0.4"></path><path id="SvgjsPath1012" d="M 50.00000000000001 125.00000000000001 L 25 125.00000000000001 25.000000000000014 175 75.00000000000001 175 75.00000000000001 150 100 122.04915028125262 125.00000000000001 150" stroke="blue" stroke-opacity="0.6" stroke-width="4" fill="none" fill-opacity="0.4"></path><path id="SvgjsPath1013" d="M 74.99999999999999 50.00000000000001 L 74.99999999999997 25.000000000000014 24.99999999999997 25.00000000000003 24.999999999999986 75.00000000000003 49.99999999999999 75.00000000000001 77.95084971874738 100 50.00000000000001 125.00000000000001" stroke="blue" stroke-opacity="0.6" stroke-width="4" fill="none" fill-opacity="0.4"></path><path id="SvgjsPath1014" d="M 150 74.99999999999999 L 175 74.99999999999997 174.99999999999997 24.99999999999997 124.99999999999997 24.999999999999986 124.99999999999999 49.99999999999999 99.99999999999999 77.95084971874738 74.99999999999999 50.00000000000001" stroke="blue" stroke-opacity="0.6" stroke-width="4" fill="none" fill-opacity="0.4"></path><path id="SvgjsPath1015" d="M 125.00000000000003 150 L 125.00000000000003 175 150.00000000000003 174.99999999999997 175.00000000000006 199.99999999999997" stroke="blue" stroke-opacity="0.6" stroke-width="4" fill="none" fill-opacity="0.4"></path><path id="SvgjsPath1016" d="M 200.00000000000003 174.99999999999994 L 175.00000000000003 149.99999999999997 175 124.99999999999997 150 124.99999999999997 122.04915028125262 99.99999999999999 150 74.99999999999997" stroke="blue" stroke-opacity="0.6" stroke-width="4" fill="none" fill-opacity="0.4"></path><path id="SvgjsPath1017" d="M 62.500000000000014 175 L 62.50000000000002 187.5 87.50000000000003 187.5 87.50000000000001 162.49999999999997 75.00000000000001 162.5 61.02457514062633 150 75 137.5" stroke="blue" stroke-opacity="0.6" stroke-width="3" fill="none" fill-opacity="0.4"></path><path id="SvgjsPath1018" d="M 25.000000000000014 162.5 L 12.500000000000014 162.50000000000003 12.500000000000028 187.50000000000003 37.50000000000003 187.5 37.50000000000002 175 50.000000000000014 161.02457514062633 62.50000000000002 175" stroke="blue" stroke-opacity="0.6" stroke-width="3" fill="none" fill-opacity="0.4"></path><path id="SvgjsPath1019" d="M 37.49999999999999 125 L 37.499999999999986 112.5 12.499999999999986 112.50000000000003 12.5 137.50000000000003 25 137.5 38.97542485937368 150 25.000000000000014 162.5" stroke="blue" stroke-opacity="0.6" stroke-width="3" fill="none" fill-opacity="0.4"></path><path id="SvgjsPath1020" d="M 75 137.49999999999997 L 87.5 137.49999999999997 87.5 124.99999999999997 99.99999999999999 112.49999999999997" stroke="blue" stroke-opacity="0.6" stroke-width="3" fill="none" fill-opacity="0.4"></path><path id="SvgjsPath1021" d="M 87.49999999999997 99.99999999999997 L 74.99999999999999 112.49999999999999 62.499999999999986 112.5 62.49999999999999 125 50 138.97542485937367 37.49999999999999 125" stroke="blue" stroke-opacity="0.6" stroke-width="3" fill="none" fill-opacity="0.4"></path><path id="SvgjsPath1022" d="M 25 62.500000000000014 L 12.5 62.500000000000014 12.500000000000014 87.50000000000003 37.500000000000014 87.5 37.50000000000001 75 50 61.02457514062631 62.50000000000001 75" stroke="blue" stroke-opacity="0.6" stroke-width="3" fill="none" fill-opacity="0.4"></path><path id="SvgjsPath1023" d="M 37.499999999999986 25.000000000000014 L 37.49999999999998 12.500000000000014 12.499999999999979 12.500000000000028 12.499999999999993 37.50000000000003 24.999999999999993 37.50000000000002 38.97542485937369 50.000000000000014 25.000000000000007 62.50000000000002" stroke="blue" stroke-opacity="0.6" stroke-width="3" fill="none" fill-opacity="0.4"></path><path id="SvgjsPath1024" d="M 74.99999999999999 37.5 L 87.49999999999999 37.49999999999999 87.49999999999997 12.499999999999993 62.49999999999997 12.500000000000007 62.49999999999998 25.000000000000007 49.999999999999986 38.9754248593737 37.49999999999998 25.00000000000002" stroke="blue" stroke-opacity="0.6" stroke-width="3" fill="none" fill-opacity="0.4"></path><path id="SvgjsPath1025" d="M 62.50000000000004 74.99999999999997 L 62.50000000000008 87.49999999999997 75.00000000000009 87.49999999999994 87.50000000000011 99.99999999999991" stroke="blue" stroke-opacity="0.6" stroke-width="3" fill="none" fill-opacity="0.4"></path><path id="SvgjsPath1026" d="M 100.00000000000009 87.49999999999989 L 87.50000000000006 74.99999999999991 87.50000000000001 62.499999999999915 75.00000000000001 62.49999999999994 61.0245751406263 49.99999999999998 74.99999999999996 37.49999999999994" stroke="blue" stroke-opacity="0.6" stroke-width="3" fill="none" fill-opacity="0.4"></path><path id="SvgjsPath1027" d="M 137.49999999999997 25 L 137.49999999999997 12.5 112.49999999999997 12.500000000000014 112.49999999999999 37.500000000000014 124.99999999999999 37.50000000000001 138.97542485937367 50 125 62.50000000000001" stroke="blue" stroke-opacity="0.6" stroke-width="3" fill="none" fill-opacity="0.4"></path><path id="SvgjsPath1028" d="M 175 37.49999999999997 L 187.5 37.499999999999964 187.49999999999997 12.499999999999964 162.49999999999997 12.499999999999979 162.49999999999997 24.99999999999998 150 38.975424859373675 137.49999999999997 24.999999999999993" stroke="blue" stroke-opacity="0.6" stroke-width="3" fill="none" fill-opacity="0.4"></path><path id="SvgjsPath1029" d="M 162.50000000000006 74.99999999999996 L 162.5000000000001 87.49999999999997 187.5000000000001 87.4999999999999 187.50000000000003 62.4999999999999 175.00000000000003 62.49999999999993 161.02457514062633 49.999999999999964 174.99999999999997 37.49999999999993" stroke="blue" stroke-opacity="0.6" stroke-width="3" fill="none" fill-opacity="0.4"></path><path id="SvgjsPath1030" d="M 125.00000000000001 62.500000000000014 L 112.5 62.50000000000003 112.50000000000003 75.00000000000003 100.00000000000003 87.50000000000003" stroke="blue" stroke-opacity="0.6" stroke-width="3" fill="none" fill-opacity="0.4"></path><path id="SvgjsPath1031" d="M 112.50000000000003 100.00000000000003 L 125.00000000000003 87.50000000000003 137.50000000000003 87.5 137.50000000000003 75.00000000000001 150 61.02457514062631 162.50000000000003 74.99999999999999" stroke="blue" stroke-opacity="0.6" stroke-width="3" fill="none" fill-opacity="0.4"></path><path id="SvgjsPath1032" d="M 175 137.49999999999997 L 187.5 137.49999999999997 187.49999999999997 112.49999999999997 162.49999999999997 112.5 162.49999999999997 125 150 138.97542485937367 137.49999999999997 125" stroke="blue" stroke-opacity="0.6" stroke-width="3" fill="none" fill-opacity="0.4"></path><path id="SvgjsPath1033" d="M 162.50000000000006 174.99999999999997 L 162.50000000000009 187.49999999999997 175.00000000000009 187.49999999999994 187.5000000000001 199.99999999999991" stroke="blue" stroke-opacity="0.6" stroke-width="3" fill="none" fill-opacity="0.4"></path><path id="SvgjsPath1034" d="M 200.00000000000009 187.4999999999999 L 187.50000000000006 174.99999999999991 187.50000000000003 162.49999999999991 175.00000000000003 162.49999999999994 161.02457514062633 149.99999999999997 174.99999999999997 137.49999999999994" stroke="blue" stroke-opacity="0.6" stroke-width="3" fill="none" fill-opacity="0.4"></path><path id="SvgjsPath1035" d="M 125.00000000000001 162.50000000000003 L 112.5 162.50000000000003 112.50000000000003 187.50000000000003 137.50000000000003 187.5 137.50000000000003 175 150 161.02457514062633 162.50000000000003 175" stroke="blue" stroke-opacity="0.6" stroke-width="3" fill="none" fill-opacity="0.4"></path><path id="SvgjsPath1036" d="M 137.50000000000003 124.99999999999999 L 137.50000000000003 112.49999999999999 125.00000000000003 112.49999999999997 112.50000000000006 99.99999999999997" stroke="blue" stroke-opacity="0.6" stroke-width="3" fill="none" fill-opacity="0.4"></path><path id="SvgjsPath1037" d="M 100.00000000000003 112.49999999999994 L 112.50000000000003 124.99999999999997 112.50000000000001 137.49999999999997 125.00000000000001 137.49999999999997 138.97542485937367 150 124.99999999999999 162.49999999999997" stroke="blue" stroke-opacity="0.6" stroke-width="3" fill="none" fill-opacity="0.4"></path><path id="SvgjsPath1038" d="M 275 50.00000000000001 L 275 25.000000000000014 224.99999999999997 25.00000000000003 225 75.00000000000003 250 75.00000000000001 277.95084971874735 100 250 125.00000000000001" stroke="blue" stroke-opacity="0.6" stroke-width="4" fill="none" fill-opacity="0.4"></path><path id="SvgjsPath1039" d="M 350 74.99999999999999 L 375 74.99999999999997 375 24.99999999999997 325 24.999999999999986 325 49.99999999999999 300 77.95084971874738 275 50.00000000000001" stroke="blue" stroke-opacity="0.6" stroke-width="4" fill="none" fill-opacity="0.4"></path><path id="SvgjsPath1040" d="M 325 150 L 325.00000000000006 175 375 174.99999999999997 375 124.99999999999997 350 124.99999999999997 322.04915028125265 99.99999999999999 350 74.99999999999997" stroke="blue" stroke-opacity="0.6" stroke-width="4" fill="none" fill-opacity="0.4"></path><path id="SvgjsPath1041" d="M 250 125.00000000000003 L 225 125.00000000000003 225.00000000000003 150.00000000000003 200.00000000000006 175.00000000000006" stroke="blue" stroke-opacity="0.6" stroke-width="4" fill="none" fill-opacity="0.4"></path><path id="SvgjsPath1042" d="M 225.00000000000006 200.00000000000006 L 250.00000000000003 175.00000000000003 275.00000000000006 175 275 150 300 122.04915028125262 325 150" stroke="blue" stroke-opacity="0.6" stroke-width="4" fill="none" fill-opacity="0.4"></path><path id="SvgjsPath1043" d="M 225 62.50000000000003 L 212.5 62.50000000000003 212.50000000000003 87.50000000000003 237.50000000000003 87.50000000000003 237.5 75.00000000000003 250 61.024575140626325 262.5 75" stroke="blue" stroke-opacity="0.6" stroke-width="3" fill="none" fill-opacity="0.4"></path><path id="SvgjsPath1044" d="M 237.5 25.00000000000002 L 237.49999999999997 12.500000000000021 212.49999999999997 12.500000000000036 212.5 37.500000000000036 225 37.50000000000003 238.97542485937367 50.00000000000002 225 62.50000000000003" stroke="blue" stroke-opacity="0.6" stroke-width="3" fill="none" fill-opacity="0.4"></path><path id="SvgjsPath1045" d="M 275 37.5 L 287.5 37.49999999999999 287.5 12.499999999999993 262.5 12.500000000000007 262.5 25.000000000000007 250 38.9754248593737 237.49999999999997 25.00000000000002" stroke="blue" stroke-opacity="0.6" stroke-width="3" fill="none" fill-opacity="0.4"></path><path id="SvgjsPath1046" d="M 262.50000000000006 74.99999999999999 L 262.5000000000001 87.49999999999999 275.0000000000001 87.49999999999994 287.5000000000001 99.99999999999991" stroke="blue" stroke-opacity="0.6" stroke-width="3" fill="none" fill-opacity="0.4"></path><path id="SvgjsPath1047" d="M 300.0000000000001 87.49999999999989 L 287.50000000000006 74.99999999999991 287.5 62.49999999999992 275.00000000000006 62.49999999999996 261.0245751406263 49.999999999999986 274.99999999999994 37.49999999999996" stroke="blue" stroke-opacity="0.6" stroke-width="3" fill="none" fill-opacity="0.4"></path><path id="SvgjsPath1048" d="M 337.5 24.999999999999993 L 337.5 12.499999999999993 312.5 12.500000000000007 312.5 37.50000000000001 325 37.5 338.9754248593737 49.99999999999999 325 62.5" stroke="blue" stroke-opacity="0.6" stroke-width="3" fill="none" fill-opacity="0.4"></path><path id="SvgjsPath1049" d="M 375 37.49999999999997 L 387.5 37.499999999999964 387.5 12.499999999999964 362.5 12.499999999999979 362.5 24.99999999999998 350 38.975424859373675 337.5 24.999999999999993" stroke="blue" stroke-opacity="0.6" stroke-width="3" fill="none" fill-opacity="0.4"></path><path id="SvgjsPath1050" d="M 362.50000000000006 74.99999999999996 L 362.5000000000001 87.49999999999996 387.5000000000001 87.49999999999989 387.5 62.49999999999989 375.00000000000006 62.49999999999993 361.0245751406263 49.99999999999996 374.99999999999994 37.49999999999993" stroke="blue" stroke-opacity="0.6" stroke-width="3" fill="none" fill-opacity="0.4"></path><path id="SvgjsPath1051" d="M 325 62.5 L 312.5 62.500000000000014 312.5 75.00000000000001 300 87.50000000000003" stroke="blue" stroke-opacity="0.6" stroke-width="3" fill="none" fill-opacity="0.4"></path><path id="SvgjsPath1052" d="M 312.50000000000006 100.00000000000001 L 325 87.5 337.5 87.5 337.5 75 350 61.0245751406263 362.5 74.99999999999997" stroke="blue" stroke-opacity="0.6" stroke-width="3" fill="none" fill-opacity="0.4"></path><path id="SvgjsPath1053" d="M 375 137.49999999999997 L 387.5 137.49999999999997 387.5 112.49999999999997 362.5 112.5 362.5 125 350 138.97542485937367 337.5 125" stroke="blue" stroke-opacity="0.6" stroke-width="3" fill="none" fill-opacity="0.4"></path><path id="SvgjsPath1054" d="M 362.50000000000006 174.99999999999997 L 362.5000000000001 187.49999999999997 387.5000000000001 187.49999999999991 387.5 162.49999999999991 375.00000000000006 162.49999999999994 361.0245751406263 149.99999999999997 374.99999999999994 137.49999999999994" stroke="blue" stroke-opacity="0.6" stroke-width="3" fill="none" fill-opacity="0.4"></path><path id="SvgjsPath1055" d="M 325 162.50000000000003 L 312.5 162.50000000000003 312.5 187.50000000000003 337.5 187.5 337.5 175 350 161.02457514062633 362.5 175" stroke="blue" stroke-opacity="0.6" stroke-width="3" fill="none" fill-opacity="0.4"></path><path id="SvgjsPath1056" d="M 337.5 124.99999999999999 L 337.50000000000006 112.49999999999999 325.00000000000006 112.49999999999997 312.50000000000006 99.99999999999997" stroke="blue" stroke-opacity="0.6" stroke-width="3" fill="none" fill-opacity="0.4"></path><path id="SvgjsPath1057" d="M 300.00000000000006 112.49999999999994 L 312.5 124.99999999999997 312.5 137.49999999999997 325 137.49999999999997 338.9754248593737 150 325 162.49999999999997" stroke="blue" stroke-opacity="0.6" stroke-width="3" fill="none" fill-opacity="0.4"></path><path id="SvgjsPath1058" d="M 262.50000000000006 174.99999999999997 L 262.5000000000001 187.49999999999997 287.5000000000001 187.49999999999991 287.5 162.49999999999991 275.00000000000006 162.49999999999994 261.0245751406263 149.99999999999997 274.99999999999994 137.49999999999994" stroke="blue" stroke-opacity="0.6" stroke-width="3" fill="none" fill-opacity="0.4"></path><path id="SvgjsPath1059" d="M 225 162.50000000000003 L 212.5 162.50000000000003 212.50000000000003 175.00000000000003 200.00000000000003 187.50000000000003" stroke="blue" stroke-opacity="0.6" stroke-width="3" fill="none" fill-opacity="0.4"></path><path id="SvgjsPath1060" d="M 212.50000000000003 200.00000000000003 L 225.00000000000003 187.50000000000003 237.50000000000003 187.5 237.50000000000003 175 250 161.02457514062633 262.5 175" stroke="blue" stroke-opacity="0.6" stroke-width="3" fill="none" fill-opacity="0.4"></path><path id="SvgjsPath1061" d="M 237.50000000000003 124.99999999999999 L 237.50000000000003 112.49999999999999 212.50000000000003 112.49999999999997 212.5 137.49999999999997 225 137.49999999999997 238.97542485937367 150 225 162.49999999999997" stroke="blue" stroke-opacity="0.6" stroke-width="3" fill="none" fill-opacity="0.4"></path><path id="SvgjsPath1062" d="M 275 137.49999999999997 L 287.5 137.49999999999997 287.5 124.99999999999997 299.99999999999994 112.49999999999996" stroke="blue" stroke-opacity="0.6" stroke-width="3" fill="none" fill-opacity="0.4"></path><path id="SvgjsPath1063" d="M 287.49999999999994 99.99999999999997 L 274.99999999999994 112.49999999999997 262.49999999999994 112.49999999999999 262.5 124.99999999999999 250 138.97542485937367 237.49999999999997 125.00000000000001" stroke="blue" stroke-opacity="0.6" stroke-width="3" fill="none" fill-opacity="0.4"></path><path id="SvgjsPath1064" d="M 350 275 L 375 275 375 224.99999999999997 325 225 325 250 300 277.95084971874735 275 250" stroke="blue" stroke-opacity="0.6" stroke-width="4" fill="none" fill-opacity="0.4"></path><path id="SvgjsPath1065" d="M 325 350 L 325.00000000000006 375 375 375 375 324.99999999999994 350 325 322.04915028125265 300 350 275" stroke="blue" stroke-opacity="0.6" stroke-width="4" fill="none" fill-opacity="0.4"></path><path id="SvgjsPath1066" d="M 250 325 L 225 325.00000000000006 225.00000000000006 375.00000000000006 275.00000000000006 375 275 350 300 322.04915028125265 325 350" stroke="blue" stroke-opacity="0.6" stroke-width="4" fill="none" fill-opacity="0.4"></path><path id="SvgjsPath1067" d="M 275 250 L 274.99999999999994 225 249.99999999999994 225.00000000000003 224.99999999999994 200.00000000000006" stroke="blue" stroke-opacity="0.6" stroke-width="4" fill="none" fill-opacity="0.4"></path><path id="SvgjsPath1068" d="M 199.99999999999994 225.00000000000006 L 224.99999999999997 250.00000000000006 225 275.00000000000006 250 275 277.95084971874735 300 250 325" stroke="blue" stroke-opacity="0.6" stroke-width="4" fill="none" fill-opacity="0.4"></path><path id="SvgjsPath1069" d="M 337.5 225 L 337.5 212.5 312.5 212.50000000000003 312.5 237.50000000000003 325 237.5 338.9754248593737 250 325 262.5" stroke="blue" stroke-opacity="0.6" stroke-width="3" fill="none" fill-opacity="0.4"></path><path id="SvgjsPath1070" d="M 375 237.49999999999997 L 387.5 237.49999999999997 387.5 212.49999999999997 362.5 212.5 362.5 225 350 238.97542485937367 337.5 225" stroke="blue" stroke-opacity="0.6" stroke-width="3" fill="none" fill-opacity="0.4"></path><path id="SvgjsPath1071" d="M 362.50000000000006 274.99999999999994 L 362.5000000000001 287.5 387.5000000000001 287.4999999999999 387.5 262.4999999999999 375.00000000000006 262.49999999999994 361.0245751406263 249.99999999999997 374.99999999999994 237.49999999999994" stroke="blue" stroke-opacity="0.6" stroke-width="3" fill="none" fill-opacity="0.4"></path><path id="SvgjsPath1072" d="M 325 262.5 L 312.5 262.5 312.5 275 300 287.50000000000006" stroke="blue" stroke-opacity="0.6" stroke-width="3" fill="none" fill-opacity="0.4"></path><path id="SvgjsPath1073" d="M 312.50000000000006 300 L 325 287.5 337.5 287.5 337.5 275 350 261.0245751406263 362.5 275" stroke="blue" stroke-opacity="0.6" stroke-width="3" fill="none" fill-opacity="0.4"></path><path id="SvgjsPath1074" d="M 375 337.5 L 387.5 337.5 387.5 312.5 362.5 312.5 362.5 325 350 338.9754248593737 337.5 325" stroke="blue" stroke-opacity="0.6" stroke-width="3" fill="none" fill-opacity="0.4"></path><path id="SvgjsPath1075" d="M 362.50000000000006 374.99999999999994 L 362.5000000000001 387.5 387.5000000000001 387.4999999999999 387.5 362.4999999999999 375.00000000000006 362.49999999999994 361.0245751406263 350 374.99999999999994 337.49999999999994" stroke="blue" stroke-opacity="0.6" stroke-width="3" fill="none" fill-opacity="0.4"></path><path id="SvgjsPath1076" d="M 325 362.5 L 312.5 362.5 312.5 387.5 337.5 387.5 337.5 375 350 361.0245751406263 362.5 375" stroke="blue" stroke-opacity="0.6" stroke-width="3" fill="none" fill-opacity="0.4"></path><path id="SvgjsPath1077" d="M 337.5 325 L 337.50000000000006 312.5 325.00000000000006 312.5 312.50000000000006 299.99999999999994" stroke="blue" stroke-opacity="0.6" stroke-width="3" fill="none" fill-opacity="0.4"></path><path id="SvgjsPath1078" d="M 300.00000000000006 312.49999999999994 L 312.5 324.99999999999994 312.5 337.49999999999994 325 337.5 338.9754248593737 350 325 362.5" stroke="blue" stroke-opacity="0.6" stroke-width="3" fill="none" fill-opacity="0.4"></path><path id="SvgjsPath1079" d="M 262.50000000000006 374.99999999999994 L 262.5000000000001 387.5 287.5000000000001 387.4999999999999 287.5 362.4999999999999 275.00000000000006 362.49999999999994 261.0245751406263 350 274.99999999999994 337.49999999999994" stroke="blue" stroke-opacity="0.6" stroke-width="3" fill="none" fill-opacity="0.4"></path><path id="SvgjsPath1080" d="M 225 362.5 L 212.5 362.5 212.50000000000003 387.5 237.50000000000003 387.5 237.50000000000003 375 250 361.0245751406263 262.5 375" stroke="blue" stroke-opacity="0.6" stroke-width="3" fill="none" fill-opacity="0.4"></path><path id="SvgjsPath1081" d="M 237.50000000000003 325 L 237.50000000000003 312.5 212.50000000000003 312.49999999999994 212.5 337.49999999999994 225 337.5 238.97542485937367 350 225 362.5" stroke="blue" stroke-opacity="0.6" stroke-width="3" fill="none" fill-opacity="0.4"></path><path id="SvgjsPath1082" d="M 275 337.5 L 287.5 337.49999999999994 287.5 324.99999999999994 299.99999999999994 312.49999999999994" stroke="blue" stroke-opacity="0.6" stroke-width="3" fill="none" fill-opacity="0.4"></path><path id="SvgjsPath1083" d="M 287.49999999999994 299.99999999999994 L 274.99999999999994 312.5 262.49999999999994 312.5 262.5 325 250 338.9754248593737 237.49999999999997 325" stroke="blue" stroke-opacity="0.6" stroke-width="3" fill="none" fill-opacity="0.4"></path><path id="SvgjsPath1084" d="M 225 262.5 L 212.5 262.5 212.50000000000003 287.5 237.50000000000003 287.5 237.50000000000003 275 250 261.0245751406263 262.5 275" stroke="blue" stroke-opacity="0.6" stroke-width="3" fill="none" fill-opacity="0.4"></path><path id="SvgjsPath1085" d="M 237.49999999999994 225.00000000000003 L 237.49999999999991 212.50000000000003 224.99999999999991 212.50000000000006 212.4999999999999 200.0000000000001" stroke="blue" stroke-opacity="0.6" stroke-width="3" fill="none" fill-opacity="0.4"></path><path id="SvgjsPath1086" d="M 199.9999999999999 212.5000000000001 L 212.49999999999994 225.00000000000009 212.49999999999997 237.50000000000009 224.99999999999997 237.50000000000006 238.97542485937367 250.00000000000003 225.00000000000003 262.50000000000006" stroke="blue" stroke-opacity="0.6" stroke-width="3" fill="none" fill-opacity="0.4"></path><path id="SvgjsPath1087" d="M 274.99999999999994 237.4999999999999 L 287.49999999999994 237.49999999999983 287.49999999999983 212.49999999999983 262.49999999999983 212.49999999999994 262.4999999999999 224.99999999999994 249.99999999999994 238.97542485937367 237.4999999999999 225.00000000000006" stroke="blue" stroke-opacity="0.6" stroke-width="3" fill="none" fill-opacity="0.4"></path><path id="SvgjsPath1088" d="M 262.50000000000006 274.99999999999994 L 262.5000000000001 287.49999999999994 275.0000000000001 287.49999999999994 287.5000000000001 299.9999999999999" stroke="blue" stroke-opacity="0.6" stroke-width="3" fill="none" fill-opacity="0.4"></path><path id="SvgjsPath1089" d="M 300.0000000000001 287.4999999999999 L 287.50000000000006 274.9999999999999 287.50000000000006 262.4999999999999 275.00000000000006 262.49999999999994 261.0245751406263 249.99999999999997 274.99999999999994 237.49999999999994" stroke="blue" stroke-opacity="0.6" stroke-width="3" fill="none" fill-opacity="0.4"></path><path id="SvgjsPath1090" d="M 125.00000000000003 350 L 125.00000000000003 375 175.00000000000003 375 175 324.99999999999994 150 325 122.04915028125265 300 150 275" stroke="blue" stroke-opacity="0.6" stroke-width="4" fill="none" fill-opacity="0.4"></path><path id="SvgjsPath1091" d="M 50.000000000000014 325 L 25.000000000000014 325.00000000000006 25.000000000000043 375.00000000000006 75.00000000000003 375 75.00000000000003 350 100.00000000000001 322.04915028125265 125.00000000000003 350" stroke="blue" stroke-opacity="0.6" stroke-width="4" fill="none" fill-opacity="0.4"></path><path id="SvgjsPath1092" d="M 74.99999999999997 250 L 74.99999999999996 225 24.999999999999957 225.00000000000006 24.999999999999986 275.00000000000006 49.999999999999986 275 77.95084971874735 300 50.000000000000014 325" stroke="blue" stroke-opacity="0.6" stroke-width="4" fill="none" fill-opacity="0.4"></path><path id="SvgjsPath1093" d="M 150 274.99999999999994 L 175 274.99999999999994 174.99999999999997 249.99999999999994 199.99999999999994 224.99999999999994" stroke="blue" stroke-opacity="0.6" stroke-width="4" fill="none" fill-opacity="0.4"></path><path id="SvgjsPath1094" d="M 174.99999999999994 199.99999999999994 L 149.99999999999994 224.99999999999997 124.99999999999996 225 124.99999999999997 250 99.99999999999999 277.95084971874735 74.99999999999997 250" stroke="blue" stroke-opacity="0.6" stroke-width="4" fill="none" fill-opacity="0.4"></path><path id="SvgjsPath1095" d="M 175.00000000000003 337.5 L 187.50000000000003 337.5 187.5 312.5 162.5 312.5 162.5 325 150.00000000000003 338.9754248593737 137.5 325" stroke="blue" stroke-opacity="0.6" stroke-width="3" fill="none" fill-opacity="0.4"></path><path id="SvgjsPath1096" d="M 162.50000000000009 374.99999999999994 L 162.5000000000001 387.5 187.5000000000001 387.4999999999999 187.50000000000006 362.4999999999999 175.00000000000006 362.49999999999994 161.02457514062635 350 175 337.49999999999994" stroke="blue" stroke-opacity="0.6" stroke-width="3" fill="none" fill-opacity="0.4"></path><path id="SvgjsPath1097" d="M 125.00000000000004 362.5 L 112.50000000000003 362.5 112.50000000000006 387.5 137.50000000000006 387.5 137.50000000000006 375 150.00000000000003 361.0245751406263 162.50000000000006 375" stroke="blue" stroke-opacity="0.6" stroke-width="3" fill="none" fill-opacity="0.4"></path><path id="SvgjsPath1098" d="M 137.50000000000006 325 L 137.50000000000006 312.5 125.00000000000006 312.5 112.50000000000009 299.99999999999994" stroke="blue" stroke-opacity="0.6" stroke-width="3" fill="none" fill-opacity="0.4"></path><path id="SvgjsPath1099" d="M 100.00000000000006 312.49999999999994 L 112.50000000000006 324.99999999999994 112.50000000000004 337.49999999999994 125.00000000000004 337.5 138.9754248593737 350 125.00000000000001 362.5" stroke="blue" stroke-opacity="0.6" stroke-width="3" fill="none" fill-opacity="0.4"></path><path id="SvgjsPath1100" d="M 62.500000000000085 374.99999999999994 L 62.500000000000114 387.5 87.50000000000011 387.4999999999999 87.50000000000006 362.4999999999999 75.00000000000006 362.49999999999994 61.02457514062635 350 74.99999999999999 337.49999999999994" stroke="blue" stroke-opacity="0.6" stroke-width="3" fill="none" fill-opacity="0.4"></path><path id="SvgjsPath1101" d="M 25.000000000000032 362.5 L 12.500000000000028 362.5 12.50000000000005 387.5 37.50000000000005 387.5 37.50000000000004 375 50.00000000000003 361.0245751406263 62.50000000000004 375" stroke="blue" stroke-opacity="0.6" stroke-width="3" fill="none" fill-opacity="0.4"></path><path id="SvgjsPath1102" d="M 37.50000000000004 325 L 37.50000000000006 312.5 12.500000000000057 312.49999999999994 12.500000000000036 337.49999999999994 25.000000000000032 337.5 38.975424859373696 350 25.00000000000001 362.5" stroke="blue" stroke-opacity="0.6" stroke-width="3" fill="none" fill-opacity="0.4"></path><path id="SvgjsPath1103" d="M 75.00000000000001 337.5 L 87.5 337.49999999999994 87.5 324.99999999999994 99.99999999999999 312.49999999999994" stroke="blue" stroke-opacity="0.6" stroke-width="3" fill="none" fill-opacity="0.4"></path><path id="SvgjsPath1104" d="M 87.49999999999997 299.99999999999994 L 74.99999999999999 312.5 62.499999999999986 312.5 62.5 325 50.000000000000014 338.9754248593737 37.5 325" stroke="blue" stroke-opacity="0.6" stroke-width="3" fill="none" fill-opacity="0.4"></path><path id="SvgjsPath1105" d="M 24.99999999999999 262.5 L 12.499999999999986 262.5 12.500000000000007 287.5 37.50000000000001 287.5 37.5 275 49.999999999999986 261.0245751406263 62.5 275" stroke="blue" stroke-opacity="0.6" stroke-width="3" fill="none" fill-opacity="0.4"></path><path id="SvgjsPath1106" d="M 37.49999999999994 225.00000000000006 L 37.499999999999915 212.50000000000006 12.499999999999908 212.5000000000001 12.499999999999972 237.5000000000001 24.999999999999975 237.50000000000009 38.97542485937368 250.00000000000006 25.00000000000004 262.5000000000001" stroke="blue" stroke-opacity="0.6" stroke-width="3" fill="none" fill-opacity="0.4"></path><path id="SvgjsPath1107" d="M 74.99999999999991 237.49999999999994 L 87.49999999999991 237.4999999999999 87.49999999999982 212.4999999999999 62.499999999999815 212.5 62.49999999999987 225 49.99999999999993 238.97542485937373 37.49999999999987 225.0000000000001" stroke="blue" stroke-opacity="0.6" stroke-width="3" fill="none" fill-opacity="0.4"></path><path id="SvgjsPath1108" d="M 62.500000000000014 275 L 62.50000000000005 287.5 75.00000000000006 287.49999999999994 87.50000000000009 299.99999999999994" stroke="blue" stroke-opacity="0.6" stroke-width="3" fill="none" fill-opacity="0.4"></path><path id="SvgjsPath1109" d="M 100.00000000000006 287.4999999999999 L 87.50000000000001 274.99999999999994 87.49999999999999 262.49999999999994 74.99999999999999 262.49999999999994 61.024575140626276 250 74.99999999999991 237.49999999999997" stroke="blue" stroke-opacity="0.6" stroke-width="3" fill="none" fill-opacity="0.4"></path><path id="SvgjsPath1110" d="M 137.49999999999997 224.99999999999997 L 137.49999999999997 212.49999999999994 112.49999999999997 212.49999999999994 112.49999999999996 237.49999999999994 124.99999999999996 237.49999999999994 138.97542485937362 249.99999999999997 124.99999999999993 262.49999999999994" stroke="blue" stroke-opacity="0.6" stroke-width="3" fill="none" fill-opacity="0.4"></path><path id="SvgjsPath1111" d="M 174.99999999999997 237.49999999999991 L 187.49999999999994 237.49999999999991 187.49999999999994 224.99999999999991 199.99999999999994 212.4999999999999" stroke="blue" stroke-opacity="0.6" stroke-width="3" fill="none" fill-opacity="0.4"></path><path id="SvgjsPath1112" d="M 187.49999999999994 199.99999999999991 L 174.99999999999994 212.49999999999991 162.49999999999994 212.49999999999994 162.49999999999994 224.99999999999994 149.99999999999997 238.97542485937362 137.49999999999994 224.99999999999994" stroke="blue" stroke-opacity="0.6" stroke-width="3" fill="none" fill-opacity="0.4"></path><path id="SvgjsPath1113" d="M 162.50000000000006 274.99999999999994 L 162.5000000000001 287.49999999999994 187.5000000000001 287.4999999999999 187.50000000000003 262.4999999999999 175.00000000000003 262.4999999999999 161.02457514062633 249.99999999999994 174.99999999999997 237.49999999999991" stroke="blue" stroke-opacity="0.6" stroke-width="3" fill="none" fill-opacity="0.4"></path><path id="SvgjsPath1114" d="M 124.99999999999999 262.5 L 112.49999999999999 262.50000000000006 112.5 275.00000000000006 100 287.50000000000006" stroke="blue" stroke-opacity="0.6" stroke-width="3" fill="none" fill-opacity="0.4"></path><path id="SvgjsPath1115" d="M 112.50000000000003 300.00000000000006 L 125 287.5 137.5 287.5 137.5 275 149.99999999999997 261.0245751406263 162.5 275" stroke="blue" stroke-opacity="0.6" stroke-width="3" fill="none" fill-opacity="0.4"></path></svg>