<?xml version="1.0" encoding="utf-8"?>
<!-- Generator: Adobe Illustrator 21.1.0, SVG Export Plug-In . SVG Version: 6.00 Build 0)  -->
<svg version="1.1" xmlns="http://www.w3.org/2000/svg" xmlns:xlink="http://www.w3.org/1999/xlink" x="0px" y="0px"
	 viewBox="0 0 415 413" style="enable-background:new 0 0 415 413;" xml:space="preserve">
<style type="text/css">
	.st0{opacity:0.8;fill:#FFFFFF;}
	.st1{fill:none;stroke:#0019FC;stroke-width:3;stroke-miterlimit:10;}
	.st2{fill:none;stroke:#0FB5B1;stroke-width:3;stroke-miterlimit:10;}
	.st3{fill:none;stroke:#F40884;stroke-width:3;stroke-miterlimit:10;}
</style>
<g id="Layer_1">
	
		<image style="overflow:visible;" width="830" height="826" xlink:href="../../art/stained-glass-window.png"  transform="matrix(0.5 0 0 0.5 0 0)">
	</image>
	<rect x="2.4" y="-1.3" class="st0" width="415" height="413"/>
	<path class="st1" d="M322.7,168.8"/>
	<polyline class="st2" points="142.8,152.6 129,166.7 115.4,166.7 115.4,193.4 142.8,193.4 142.8,179.6 156.7,166.7 	"/>
	<polyline class="st3" points="168.8,156.2 180.9,168.1 192.3,168.1 192.3,179.5 204.3,191.6 	"/>
	<polyline class="st3" points="156.7,167 169,179.5 169,191.6 181,191.6 192.3,202.4 	"/>
	<polyline class="st3" points="117.1,106.4 129.1,118.3 140.5,118.3 140.5,129.7 152.5,141.8 	"/>
	<polyline class="st3" points="104.9,117.2 117.3,129.7 117.3,141.8 129.3,141.8 140.5,152.6 	"/>
	<polyline class="st2" points="166.7,156.3 180.5,142.2 194.1,142.2 194.1,115.6 166.7,115.6 166.7,129.4 152.8,142.2 	"/>
</g>
<g id="Layer_2">
</g>
</svg>
